<?xml version="1.0" ?><!DOCTYPE svg  PUBLIC '-//W3C//DTD SVG 1.1//EN'  'http://www.w3.org/Graphics/SVG/1.1/DTD/svg11.dtd'><svg height="512px" id="Layer_1" style="enable-background:new 0 0 512 512;" version="1.1" viewBox="0 0 512 512" width="512px" xml:space="preserve" xmlns="http://www.w3.org/2000/svg" xmlns:xlink="http://www.w3.org/1999/xlink"><style type="text/css">
<![CDATA[
	.st0{fill-rule:evenodd;clip-rule:evenodd;fill:#319997;}
]]>
</style><path class="st0" d="M237.829,312.906c-26.06,28.202-52.417,58.109-79.416,85.539c-9.65,11.529-30.774-6.765-20.9-18.249  l69.873-93.551l1.711,1.465c20.81-28.191,10.388-64.494,16.482-71.707l24.579-29.076l19.692,16.692  c1.24,1.051,3.119,0.897,4.176-0.347l0.225-0.263c1.051-1.244,0.9-3.126-0.342-4.177l-19.703-16.698l29.755-35.21l19.748,16.74  c1.242,1.051,3.121,0.897,4.178-0.347l0.223-0.263c1.057-1.241,0.9-3.123-0.34-4.177l-19.76-16.746l29.756-35.21l19.805,16.788  c1.246,1.054,3.125,0.899,4.182-0.345l0.223-0.263c1.051-1.244,0.895-3.125-0.346-4.176l-19.814-16.796l29.756-35.211l19.865,16.838  c1.246,1.054,3.125,0.897,4.176-0.347l0.225-0.263c1.051-1.244,0.895-3.122-0.348-4.177L355.617,62.53l6.262-7.408  c-31.611-16.695-67.641-26.147-105.874-26.147c-62.699,0-119.454,25.412-160.538,66.493C54.389,136.546,28.978,193.307,28.978,256  s25.412,119.455,66.49,160.532c41.084,41.078,97.839,66.49,160.538,66.49c62.688,0,119.45-25.412,160.534-66.49  c41.078-41.077,66.49-97.839,66.49-160.532c0-49.635-15.936-95.55-42.951-132.909c-6.084,7.15-12.168,14.305-18.268,21.461  l-20.289-17.195c-1.242-1.054-3.121-0.9-4.178,0.344l-0.223,0.266c-1.057,1.241-0.9,3.123,0.34,4.174l20.279,17.185  c-9.945,11.666-19.932,23.346-29.957,35.039l-20.123-17.053c-1.24-1.054-3.125-0.9-4.182,0.344l-0.219,0.263  c-1.057,1.244-0.898,3.123,0.342,4.177l20.094,17.031c-9.975,11.629-19.992,23.272-30.068,34.944l-19.826-16.807  c-1.24-1.055-3.131-0.897-4.182,0.344l-0.225,0.263c-1.051,1.244-0.895,3.125,0.348,4.179l19.787,16.769  c-16.193,18.741-32.523,37.55-49.047,56.453c-5.977,6.844-40.787,0.845-63.822,26.625L237.829,312.906z M401.359,81.602  L220.826,294.193l-3.696-3.12L397.008,78.063C398.473,79.226,399.922,80.402,401.359,81.602z M227.2,299.571L407.66,87.059  c1.408,1.264,2.795,2.547,4.17,3.844L232.115,303.721L227.2,299.571z M256.005-0.001c141.383,0,255.997,114.615,255.997,256.001  c0,141.383-114.613,256.001-255.997,256.001C114.617,512.001-0.001,397.383-0.001,256C-0.001,114.614,114.617-0.001,256.005-0.001z"/></svg>